<svg preserveAspectRatio="none" overflow="visible" style="display: block;" width="120" height="120" viewBox="0 0 120 120" fill="none" xmlns="http://www.w3.org/2000/svg">
<g id="clip-path-residents-3">
<path id="Path 57860" d="M6.08235e-09 59.9992C-0.000168925 71.8661 3.51862 83.4666 10.1114 93.3337C16.7042 103.201 26.0748 110.891 37.0384 115.433C48.0019 119.974 60.066 121.162 71.7049 118.847C83.3438 116.532 94.0348 110.818 102.426 102.427C110.817 94.0356 116.532 83.3446 118.847 71.7058C121.162 60.0669 119.974 48.0028 115.433 37.0392C110.892 26.0756 103.201 16.7048 93.3342 10.1119C83.4673 3.519 71.867 1.20223e-09 60.0001 0C44.0872 -1.6123e-09 28.826 6.3213 17.5739 17.5733C6.32171 28.8253 0.000226533 44.0863 6.08235e-09 59.9992Z" fill="black"/>
</g>
</svg>
