<svg preserveAspectRatio="none" overflow="visible" style="display: block;" width="120" height="121" viewBox="0 0 120 121" fill="none" xmlns="http://www.w3.org/2000/svg">
<g id="clip-path-activists-3">
<path id="Path 57945" d="M10.1114 94.1113C3.51862 84.162 -0.000168919 72.4649 6.08187e-09 60.4991C0.000226539 44.4537 6.32182 29.0654 17.574 17.7197C28.8261 6.37392 44.0872 0 60 0C71.867 0 83.4674 3.54822 93.3343 10.1961C103.201 16.8439 110.892 26.2929 115.433 37.3478C119.974 48.4028 121.162 60.5673 118.847 72.3032C116.532 84.0391 110.817 94.8192 102.426 103.28C94.0349 111.741 83.3438 117.503 71.7049 119.838C60.066 122.172 48.002 120.974 37.0385 116.394C26.0749 111.815 16.7042 104.061 10.1114 94.1113Z" fill="black"/>
</g>
</svg>
